<svg width="824" height="824" viewBox="0 0 824 824" fill="none" xmlns="http://www.w3.org/2000/svg">
<path d="M412 10C634.018 10 814 189.982 814 412C814 449.848 808.771 486.463 799 521.169V481.696L798.988 479.487C798.75 456.76 794.811 437.119 786.619 421.034H786.618C778.249 404.486 766.324 391.826 750.821 383.502H750.82C735.582 375.205 718.093 371.227 698.664 371.227C677.215 371.227 658.721 375.644 643.915 385.289C637.734 389.267 632.212 393.824 627.362 398.947V374.691H567.754V660.764H628.752V490.704L628.76 489.379C628.924 475.773 631.619 464.769 636.396 455.988C641.453 446.696 648.183 439.862 656.613 435.181C665.276 430.435 675.272 427.95 686.852 427.95C703.615 427.95 715.683 433.053 724.328 442.406L724.345 442.425L724.361 442.442C733.038 451.738 738.002 465.291 738.002 484.469V647.267C664.962 748.295 546.154 814 412 814C278.455 814 160.119 748.888 86.998 648.639V555.565L104.572 539.33L197.713 656.971L200.715 660.764H278.387L265.5 644.543L149.946 499.099L256.432 391.733L273.333 374.691H194.419L191.481 377.673L86.998 483.716V175.358C160.12 75.1096 278.456 10 412 10ZM404.248 371.227C390.336 371.227 376.265 373.081 362.056 376.745L360.681 377.105C345.543 381.046 331.593 388.024 318.881 397.938C305.73 408.17 295.529 422.232 288.048 439.638L283.839 449.432L293.881 453.008L332.795 466.866L341.372 469.92L345.215 461.666C348.876 453.804 355.47 445.864 365.695 438.005C374.217 431.455 386.612 427.509 403.945 427.269L405.638 427.257C422.982 427.257 434 431.602 440.705 438.455L440.748 438.5C447.79 445.609 451.924 456.07 451.924 471.304V472.689L451.911 473.378C451.784 476.647 450.738 477.361 449.92 477.819L449.828 477.872C447.027 479.478 441.299 481.209 431.454 482.325C421.274 483.376 408.066 484.944 391.858 487.021L391.848 487.023L391.836 487.024C379.93 488.578 368.079 490.651 356.283 493.243L353.925 493.769C340.96 496.606 328.976 500.949 318.03 506.845C306.45 513.083 297.11 521.782 290.157 532.848C282.831 544.392 279.592 558.776 279.592 575.238C279.592 594.164 284.041 610.95 293.415 625.104L293.427 625.123L293.438 625.141C302.602 638.847 314.983 649.32 330.338 656.525L330.4 656.555C345.638 663.577 362.434 667 380.622 667C397.079 667 411.649 664.558 423.998 659.262C435.079 654.509 444.489 648.616 451.924 641.415V660.764H512.923V475.461C512.923 453.375 509.314 434.647 501.254 420.046C493.594 406.171 483.683 395.329 471.359 388.037C460.002 381.249 448.077 376.707 435.618 374.515H435.619C424.075 372.356 413.594 371.227 404.248 371.227ZM451.924 554.451L451.917 555.317C451.772 564.256 449.376 572.826 444.574 581.158L444.553 581.195L444.531 581.233C439.853 589.515 432.796 596.478 422.952 602.044L422.933 602.055L422.914 602.066C413.658 607.354 401.805 610.276 386.876 610.276C372.027 610.276 360.636 607.035 352.033 601.273C344.557 596.092 340.59 588.63 340.59 577.316L340.597 576.521C340.732 568.396 342.95 563.098 346.262 559.518C350.617 554.82 356.495 551.091 364.283 548.535L364.319 548.523L364.354 548.512C372.945 545.621 382.263 543.504 392.335 542.194L392.346 542.193C396.67 541.626 402.343 540.94 409.381 540.135L409.45 540.126L409.521 540.117C416.784 539.183 424.219 538.133 431.823 536.967L431.885 536.957L431.946 536.946C439.335 535.718 446.006 534.314 451.924 532.718V554.451ZM26 524.656C15.587 488.918 10 451.118 10 412C10 372.882 15.5868 335.08 26 299.342V524.656Z" fill="#1B1717" stroke="white" stroke-width="20"/>
</svg>
