<svg width="824" height="824" viewBox="0 0 824 824" fill="none" xmlns="http://www.w3.org/2000/svg">
<path d="M412 2.5C638.161 2.5 821.5 185.839 821.5 412C821.5 466.526 810.841 518.556 791.5 566.129V481.696L791.489 479.562C791.259 457.612 787.453 439.199 779.936 424.438C772.439 409.606 761.989 398.369 748.58 390.828L747.273 390.11C733.301 382.493 717.072 378.727 698.664 378.727C678.189 378.727 661.231 382.949 647.975 391.596C635.692 399.501 626.308 409.827 619.862 422.545V382.191H575.254V653.264H621.252V490.704L621.261 489.29C621.436 474.75 624.323 462.487 629.809 452.404C635.501 441.943 643.216 434.044 652.963 428.63C662.861 423.196 674.137 420.45 686.852 420.45C705.288 420.45 719.51 426.144 729.836 437.316L729.845 437.325C740.178 448.397 745.502 463.998 745.502 484.469V649.68C671.238 753.695 549.538 821.5 412 821.5C275.077 821.5 153.851 754.299 79.498 651.071V552.282L105.427 528.328L203.593 652.315L204.344 653.264H262.849L259.627 649.209L139.929 498.548L251.106 386.452L255.332 382.191H197.558L196.823 382.937L80.8154 500.677H79.498V172.928C153.851 69.7001 275.077 2.5 412 2.5ZM404.248 378.727C390.587 378.727 376.709 380.605 362.621 384.35C348.496 388.019 335.45 394.528 323.496 403.851C311.521 413.164 302.021 426.122 294.938 442.6L293.886 445.048L296.396 445.942L335.311 459.801L337.455 460.564L338.416 458.501C342.719 449.26 350.23 440.433 361.125 432.059C371.333 424.212 385.485 420.024 403.848 419.77L405.638 419.757C424.132 419.757 437.44 424.395 446.065 433.21L446.071 433.216L446.076 433.222C454.872 442.101 459.424 454.677 459.424 471.304V472.689L459.418 473.236C459.293 478.819 457.242 482.317 453.581 484.365L453.569 484.371L453.559 484.378C449.645 486.622 443.254 488.4 434.143 489.557L432.284 489.779C422.183 490.822 409.022 492.383 392.812 494.461L392.807 494.462C380.343 496.088 367.939 498.295 355.594 501.081C343.226 503.782 331.885 507.9 321.587 513.447C311.135 519.078 302.763 526.883 296.508 536.838C290.159 546.826 287.092 559.69 287.092 575.238C287.092 592.961 291.244 608.244 299.668 620.964L299.674 620.973C308.045 633.494 319.349 643.085 333.524 649.736L333.532 649.739L333.54 649.743C347.686 656.262 363.394 659.5 380.622 659.5C396.376 659.5 409.877 657.158 421.042 652.369C432.034 647.655 440.958 641.89 447.723 635.023C452.611 630.062 456.527 625.264 459.424 620.629V653.264H505.423V475.461C505.423 454.09 501.914 436.762 494.688 423.671C487.784 411.165 479.088 401.606 468.564 395.111L467.541 394.492C456.875 388.113 445.762 383.9 434.211 381.882C422.998 379.787 413.005 378.727 404.248 378.727ZM459.424 554.451L459.416 555.446C459.248 565.712 456.48 575.521 451.072 584.903L451.066 584.912L451.062 584.922C445.636 594.528 437.53 602.417 426.644 608.572L426.634 608.578C415.981 614.664 402.769 617.776 386.876 617.776C371.407 617.776 358.75 614.493 348.752 608.091L347.793 607.461C338.029 600.709 333.09 590.792 333.09 577.316L333.098 576.392C333.258 566.908 335.896 559.675 340.764 554.417L340.763 554.416C346.107 548.652 353.136 544.3 361.944 541.409L361.953 541.406L361.963 541.403C371.059 538.342 380.858 536.125 391.367 534.758L391.37 534.757C395.752 534.182 401.47 533.49 408.528 532.683L408.563 532.679C415.765 531.752 423.139 530.71 430.686 529.553L430.701 529.551L430.717 529.548C438.425 528.267 445.233 526.806 451.13 525.159L451.146 525.154L451.161 525.15C454.2 524.259 456.783 523.3 458.87 522.26C459.058 522.166 459.242 522.068 459.424 521.972V554.451ZM33.5 568.566C13.5267 520.336 2.5 467.459 2.5 412C2.5 356.541 13.5263 303.663 33.5 255.432V568.566Z" fill="#1B1717" stroke="white" stroke-width="5"/>
</svg>
