<svg width="824" height="824" viewBox="0 0 824 824" fill="none" xmlns="http://www.w3.org/2000/svg">
<path d="M461.924 554.451C461.924 565.537 459.029 576.104 453.238 586.151C447.563 596.198 439.108 604.397 427.874 610.749C416.756 617.1 403.09 620.276 386.876 620.276C370.546 620.276 357.053 616.696 346.398 609.536C335.859 602.261 330.59 591.521 330.59 577.316C330.59 566.923 333.37 558.724 338.929 552.719C344.604 546.598 352.016 542.037 361.165 539.034C370.43 535.916 380.39 533.664 391.045 532.278C395.446 531.701 401.179 531.008 408.244 530.199C415.425 529.275 422.779 528.237 430.307 527.082C437.95 525.812 444.667 524.368 450.458 522.751C456.365 521.019 460.187 519.113 461.924 517.034V554.451Z" fill="#FF2D2D"/>
<path fill-rule="evenodd" clip-rule="evenodd" d="M412 0C639.541 0 824 184.459 824 412C824 471.226 811.501 527.533 789 578.429V481.696C789 459.062 785.236 440.354 777.708 425.572C770.18 410.675 759.641 399.588 746.091 392.312C732.54 384.922 716.731 381.227 698.664 381.227C678.512 381.227 662.067 385.384 649.327 393.698C636.588 401.897 627.091 412.753 620.837 426.265H617.362V384.691H577.754V650.764H618.752V490.704C618.752 475.229 621.706 462.064 627.612 451.209C633.519 440.354 641.568 432.097 651.76 426.438C662.067 420.78 673.765 417.95 686.852 417.95C705.845 417.95 720.785 423.84 731.672 435.619C742.558 447.283 748.002 463.566 748.002 484.469V650.482C673.333 755.495 550.666 824 412 824C273.458 824 150.887 755.617 76.1992 650.764H76.998V551.189L105.713 524.662L205.553 650.764H257.67L136.591 498.364L249.331 384.691H198.604L81.8623 503.177H76.998V172.12C151.759 67.898 273.95 0 412 0ZM404.248 381.227C390.814 381.227 377.148 383.074 363.25 386.77C349.468 390.349 336.728 396.701 325.031 405.824C313.45 414.832 304.184 427.419 297.235 443.587L336.149 457.445C340.666 447.745 348.483 438.622 359.602 430.076C370.72 421.53 386.065 417.257 405.638 417.257C424.516 417.257 438.587 421.992 447.853 431.462C457.233 440.932 461.924 454.212 461.924 471.304V472.689C461.924 479.272 459.55 483.891 454.802 486.547C450.169 489.203 442.757 491.109 432.565 492.264C422.49 493.303 409.344 494.862 393.13 496.94C380.738 498.557 368.403 500.752 356.127 503.523C343.967 506.18 332.848 510.221 322.772 515.648C312.697 521.076 304.647 528.583 298.625 538.168C292.603 547.638 289.592 559.995 289.592 575.238C289.592 592.56 293.645 607.342 301.752 619.583C309.859 631.709 320.804 641.006 334.586 647.473C348.368 653.824 363.713 657 380.622 657C396.141 657 409.286 654.69 420.057 650.071C430.827 645.452 439.456 639.851 445.941 633.269C452.427 626.686 457.06 620.508 459.84 614.733H461.924V650.764H502.923V475.461C502.923 454.328 499.448 437.467 492.499 424.879C485.55 412.292 476.807 402.88 466.268 396.644C455.844 390.408 445.015 386.308 433.781 384.345C422.663 382.266 412.818 381.227 404.248 381.227Z" fill="#FF2D2D"/>
<path d="M36 580.672C12.8696 529.19 0 472.098 0 412C0 351.902 12.8694 294.81 36 243.327V580.672Z" fill="#FF2D2D"/>
</svg>
